<svg id="Logo" xmlns="http://www.w3.org/2000/svg" width="182.184" height="32" viewBox="0 0 182.184 32">
  <path id="Path_28" data-name="Path 28" d="M375.932,272.578a2.488,2.488,0,0,1,0,3.479,2.4,2.4,0,0,1-1.773.709H359.89a2.241,2.241,0,0,1-1.706-.732,2.264,2.264,0,0,1-.688-1.573,3.908,3.908,0,0,1,.177-1.264,4.716,4.716,0,0,1,.665-1.174l10.547-13.649h-8.6a2.424,2.424,0,0,1-2.482-2.482,2.28,2.28,0,0,1,.709-1.706,2.448,2.448,0,0,1,1.773-.686h13.649a2.264,2.264,0,0,1,1.661.686,2.317,2.317,0,0,1,.688,1.706,4.128,4.128,0,0,1-.133,1.13,3.363,3.363,0,0,1-.62,1.086L364.9,271.89h9.261A2.446,2.446,0,0,1,375.932,272.578Z" transform="translate(-357.496 -253.5)" fill="#2caae2"/>
  <path id="Path_29" data-name="Path 29" d="M395.533,266.243a2.661,2.661,0,0,1-1.761.629H379.939a6.319,6.319,0,0,0,2.306,3.877,6.438,6.438,0,0,0,4.065,1.4,9.02,9.02,0,0,0,2.683-.315,6.994,6.994,0,0,0,1.53-.67q.566-.356.776-.483a3.209,3.209,0,0,1,1.425-.377,2.053,2.053,0,0,1,1.509.629,2.007,2.007,0,0,1,.629,1.467,2.619,2.619,0,0,1-1.173,2.054,10.031,10.031,0,0,1-3.144,1.634,12.986,12.986,0,0,1-10.123-.8,10.243,10.243,0,0,1-4.045-4.045,11.8,11.8,0,0,1-1.425-5.806,12.851,12.851,0,0,1,1.509-6.33,10.7,10.7,0,0,1,3.983-4.171,10.294,10.294,0,0,1,5.281-1.446,9.793,9.793,0,0,1,5.22,1.509,11.29,11.29,0,0,1,3.919,4.067,10.93,10.93,0,0,1,1.467,5.533A2.149,2.149,0,0,1,395.533,266.243Zm-15.551-3.563h10.982v-.293a4.338,4.338,0,0,0-1.718-3.018,5.439,5.439,0,0,0-3.522-1.257Q380.861,258.112,379.981,262.68Z" transform="translate(-351.685 -253.5)" fill="#2caae2"/>
  <path id="Path_30" data-name="Path 30" d="M415,256.083a13.124,13.124,0,0,1,1.665,7.15v10.929a2.558,2.558,0,0,1-.725,1.857,2.627,2.627,0,0,1-3.671,0,2.554,2.554,0,0,1-.726-1.857V263.233a6.158,6.158,0,0,0-.981-3.692,3.9,3.9,0,0,0-3.374-1.345,5.207,5.207,0,0,0-3.884,1.43,4.933,4.933,0,0,0-1.409,3.607v10.929a2.558,2.558,0,0,1-.725,1.857,2.628,2.628,0,0,1-3.672,0,2.558,2.558,0,0,1-.725-1.857v-17.63a2.56,2.56,0,0,1,.725-1.857,2.628,2.628,0,0,1,3.672,0,2.56,2.56,0,0,1,.725,1.857v.725a10.325,10.325,0,0,1,3.01-2.646,7.8,7.8,0,0,1,4.077-1.11Q413.331,253.5,415,256.083Z" transform="translate(-344.403 -253.5)" fill="#2caae2"/>
  <path id="Path_31" data-name="Path 31" d="M435.651,254.261a2.613,2.613,0,0,1,.74,1.895v18.5q0,5.658-3.047,8.249a12.146,12.146,0,0,1-8.139,2.591,19.842,19.842,0,0,1-3.024-.239,11.355,11.355,0,0,1-2.5-.632q-2.133-.914-2.133-2.525a2.242,2.242,0,0,1,.131-.7,2.692,2.692,0,0,1,.892-1.459,2.159,2.159,0,0,1,1.372-.5,2.6,2.6,0,0,1,.826.131c.2.088.558.232,1.066.436a11.2,11.2,0,0,0,1.612.5,7.876,7.876,0,0,0,1.762.195,6.607,6.607,0,0,0,4.548-1.327q1.458-1.33,1.458-4.551V274.4q-2.263,2.83-7.051,2.829a7.513,7.513,0,0,1-4-1.067,7.194,7.194,0,0,1-2.7-2.96,9.472,9.472,0,0,1-.958-4.333V256.156a2.614,2.614,0,0,1,.74-1.895,2.682,2.682,0,0,1,3.744,0,2.614,2.614,0,0,1,.74,1.895V267.3a5.421,5.421,0,0,0,1.2,3.94,4.742,4.742,0,0,0,3.5,1.2,4.555,4.555,0,0,0,3.5-1.328,5.378,5.378,0,0,0,1.241-3.809V256.156a2.608,2.608,0,0,1,.74-1.895,2.681,2.681,0,0,1,3.743,0Z" transform="translate(-337.825 -253.5)" fill="#2caae2"/>
  <path id="Path_32" data-name="Path 32" d="M500.956,256.083a13.408,13.408,0,0,1,1.622,7.15v10.929a2.563,2.563,0,0,1-.725,1.857,2.628,2.628,0,0,1-3.672,0,2.558,2.558,0,0,1-.725-1.857V263.233a6.481,6.481,0,0,0-.917-3.692,3.623,3.623,0,0,0-3.223-1.345,4.88,4.88,0,0,0-3.736,1.43,5.062,5.062,0,0,0-1.345,3.607v10.929a2.563,2.563,0,0,1-.725,1.857,2.626,2.626,0,0,1-3.671,0,2.553,2.553,0,0,1-.727-1.857V263.233a6.471,6.471,0,0,0-.918-3.692,3.619,3.619,0,0,0-3.222-1.345,4.88,4.88,0,0,0-3.736,1.43,5.056,5.056,0,0,0-1.345,3.607v10.929a2.558,2.558,0,0,1-.725,1.857,2.626,2.626,0,0,1-3.671,0,2.554,2.554,0,0,1-.726-1.857v-17.63a2.556,2.556,0,0,1,.726-1.857,2.627,2.627,0,0,1,3.671,0,2.56,2.56,0,0,1,.725,1.857v.682a10.438,10.438,0,0,1,2.924-2.625,7.388,7.388,0,0,1,3.949-1.089q5.378,0,6.872,4.7a10.049,10.049,0,0,1,2.967-3.244,7.431,7.431,0,0,1,4.5-1.452Q499.334,253.5,500.956,256.083Z" transform="translate(-320.394 -253.5)" fill="#2caae2"/>
  <g id="Group_40" data-name="Group 40" transform="translate(104.736 0.065)">
    <g id="Group_39" data-name="Group 39" transform="translate(0)">
      <path id="Path_33" data-name="Path 33" d="M436.067,258.914c-.531,9.43,7.415,17.856,16.545,17.836,10.206-.024,19.266-7.01,19.266-17.9,0-6.657-7.6-7.224-8.291-.69-.882,8.36-5.689,13.892-14.438,12.213-5.342-1.024-8.436-8.4-8.615-11.584A2.235,2.235,0,1,0,436.067,258.914Z" transform="translate(-436.042 -253.549)" fill="#2caae2"/>
    </g>
  </g>
</svg>
